<?xml version="1.0" encoding="iso-8859-1"?>
<!-- Uploaded to: SVG Repo, www.svgrepo.com, Generator: SVG Repo Mixer Tools -->
<svg version="1.1" id="Layer_1" xmlns="http://www.w3.org/2000/svg" xmlns:xlink="http://www.w3.org/1999/xlink" 
	 viewBox="0 0 511.999 511.999" xml:space="preserve">
<path style="fill:#333333;" d="M133.336,448.268h245.328c13.993,0,25.336,11.342,25.336,25.332l0,0
	c0,13.991-11.344,25.332-25.336,25.332H133.336c-13.993,0-25.336-11.342-25.336-25.332l0,0
	C108,459.609,119.343,448.268,133.336,448.268z"/>
<path d="M32,39.204h448c17.674,0,32,14.327,32,32v256c0,17.674-14.327,32-32,32H32c-17.674,0-32-14.327-32-32v-256
	C0,53.531,14.327,39.204,32,39.204z"/>
<g>
	<rect x="159.998" y="400.001" style="fill:#CCCCCC;" width="191.998" height="48.264"/>
	<rect x="138.621" y="160.916" style="fill:#CCCCCC;" width="61.584" height="121.76"/>
</g>
<rect x="254.842" y="91.338" style="fill:#666666;" width="61.584" height="191.338"/>
<rect x="371.064" y="13.068" style="fill:#E21B1B;" width="61.584" height="269.61"/>
<rect x="79.352" y="278.675" style="fill:#666666;" width="353.306" height="8"/>
</svg>