<?xml version="1.0" encoding="UTF-8"?>
<svg id="Layer_2" data-name="Layer 2" xmlns="http://www.w3.org/2000/svg" viewBox="0 0 538.53 103.51">
  <defs>
    <style>
      .cls-1 {
        fill: #fff;
      }

      .cls-2 {
        fill: #00bafe;
      }
    </style>
  </defs>
  <g id="Layer_1-2" data-name="Layer 1">
    <g>
      <path class="cls-1" d="m134.34,80.72c-4.86-5.57-7.29-13.98-7.29-25.21v-5.46c0-11.24,2.43-19.64,7.29-25.22,4.86-5.57,12.14-8.36,21.83-8.36,5.83,0,10.64,1.07,14.43,3.22,3.78,2.15,6.56,4.8,8.34,7.97,1.77,3.16,2.79,6.38,3.03,9.66l.09,1.2h-8.57l-.14-.93c-.37-2.56-1.35-4.82-2.94-6.78-1.59-1.96-3.63-3.48-6.14-4.56-2.5-1.08-5.28-1.62-8.34-1.62-6.79,0-11.82,2.08-15.1,6.25s-4.91,10.56-4.91,19.17v5.46c0,8.61,1.64,15,4.93,19.17s8.34,6.25,15.17,6.25c3.06,0,5.83-.54,8.31-1.62,2.49-1.08,4.52-2.6,6.09-4.56,1.57-1.96,2.55-4.22,2.92-6.78l.14-.93h8.57l-.09,1.2c-.28,3.46-1.34,6.77-3.2,9.93-1.85,3.16-4.66,5.77-8.43,7.83-3.77,2.05-8.49,3.08-14.17,3.08-9.69,0-16.97-2.79-21.83-8.36Z"/>
      <path class="cls-1" d="m188.86,82.64c-3.84-4.29-5.77-10.59-5.77-18.89v-3.75c0-8.3,1.93-14.59,5.79-18.87,3.86-4.28,9.54-6.41,17.04-6.41s13.07,2.14,16.9,6.41c3.83,4.28,5.74,10.57,5.74,18.87v3.75c0,8.31-1.92,14.6-5.77,18.89-3.84,4.29-9.5,6.44-16.97,6.44s-13.13-2.15-16.97-6.44Zm16.97-1.34c9.6,0,14.4-5.85,14.4-17.55v-3.75c0-5.8-1.2-10.17-3.59-13.11-2.39-2.93-5.97-4.4-10.72-4.4s-8.44,1.47-10.86,4.4c-2.42,2.93-3.64,7.3-3.64,13.11v3.75c0,11.7,4.8,17.55,14.4,17.55Z"/>
      <path class="cls-1" d="m232.51,35.45h7.78v3.15c0,2.01-.09,4.11-.28,6.3h.74c1.95-6.79,6.54-10.19,13.8-10.19,1.48,0,2.84.15,4.08.46v7.78c-1.33-.25-2.55-.37-3.66-.37-4.66,0-8.2,1.25-10.6,3.75-2.41,2.5-3.61,6.28-3.61,11.35v30.66h-8.24v-52.88Z"/>
      <path class="cls-1" d="m262.39,82.57c-3.83-4.34-5.74-10.7-5.74-19.1v-3.71c0-8.24,1.89-14.48,5.67-18.71,3.78-4.23,9.35-6.34,16.69-6.34,6.95,0,12.23,1.94,15.84,5.81,3.61,3.88,5.42,9.46,5.42,16.74v6.76h-35.29c.09,6.11,1.3,10.55,3.64,13.31,2.33,2.76,6,4.15,11,4.15,3.06,0,5.58-.62,7.57-1.85,1.99-1.23,3.39-2.96,4.19-5.19l.18-.51h8.24l-.05.28c-.77,4.57-2.88,8.19-6.32,10.86-3.44,2.67-8.16,4.01-14.15,4.01-7.44,0-13.08-2.17-16.9-6.51Zm29.54-25.59c-.09-5.16-1.15-8.89-3.17-11.21s-5.27-3.47-9.75-3.47c-3.18,0-5.77.5-7.78,1.5-2.01,1-3.5,2.58-4.49,4.72-.99,2.15-1.56,4.96-1.71,8.45h26.91Z"/>
      <path class="cls-1" d="m297.92,17.21h9.12l10.05,43.16c.83,3.61,1.5,6.82,2.01,9.63.51,2.81.79,5.28.86,7.41h.74c.34-2.69,1.47-7.5,3.38-14.45l12.78-45.75h9.54l13.85,45.75c.86,2.84,1.6,5.6,2.22,8.27.62,2.67,1,4.73,1.16,6.18h.74c.06-1.91.3-4.04.72-6.39s1.03-5.43,1.83-9.26l.28-1.39,9.12-43.16h9.12l-15.75,71.13h-10.09l-13.62-44.41c-2.01-6.61-3.33-11.64-3.98-15.1h-.74c-.37,1.98-.85,4.09-1.44,6.34-.59,2.25-1.39,5.17-2.41,8.75l-12.69,44.41h-10.09l-16.72-71.13Z"/>
      <path class="cls-1" d="m389.51,87.09c-2.42-1.33-4.27-3.22-5.53-5.67-1.27-2.46-1.9-5.33-1.9-8.64,0-4.94,1.46-8.71,4.38-11.3,2.92-2.59,7.15-3.89,12.71-3.89h15.24v-6.25c0-2.93-.95-5.17-2.85-6.71-1.9-1.54-4.65-2.32-8.27-2.32-3,0-5.46.56-7.39,1.67-1.93,1.11-3.08,2.64-3.45,4.58l-.09.46h-8.15v-.09c0-2.75.82-5.2,2.45-7.36,1.64-2.16,3.91-3.84,6.83-5.05,2.92-1.2,6.26-1.81,10.03-1.81,6.11,0,10.83,1.4,14.15,4.19,3.32,2.79,4.98,6.78,4.98,11.97v27.46c0,1.36.32,2.38.97,3.08.65.69,1.5,1.04,2.55,1.04.56,0,1.14-.08,1.76-.23v5.83c-1.36.68-2.92,1.02-4.68,1.02-2.62,0-4.74-.79-6.34-2.36-1.61-1.57-2.41-3.7-2.41-6.39v-.09h-.74c-3.46,5.9-8.63,8.85-15.51,8.85-3.4,0-6.31-.66-8.73-1.99Zm3.36-7.8c1.64,1.47,3.94,2.2,6.9,2.2s5.37-.65,7.59-1.95c2.22-1.3,3.95-3.09,5.19-5.37,1.23-2.28,1.85-4.88,1.85-7.78v-1.67h-14.77c-3.03,0-5.32.69-6.88,2.08-1.56,1.39-2.34,3.43-2.34,6.11s.82,4.9,2.46,6.37Z"/>
      <path class="cls-1" d="m434.48,84.89c-2.52-2.79-3.77-6.78-3.77-11.97v-29.87h-7.96v-7.59h7.96v-16.58h8.24v16.58h10.88v7.59h-10.88v28.94c0,2.38.27,4.25.81,5.63.54,1.37,1.41,2.36,2.62,2.96,1.2.6,2.86.9,4.96.9,1.58,0,2.93-.2,4.08-.6h.14v7.09c-1.88.74-3.98,1.11-6.3,1.11-4.66,0-8.25-1.4-10.77-4.19Z"/>
      <path class="cls-1" d="m457.27,82.55c-3.78-4.35-5.67-10.76-5.67-19.22v-3.2c0-8.37,1.89-14.69,5.67-18.99,3.78-4.29,9.36-6.44,16.74-6.44,3.77,0,7.13.67,10.09,2.01,2.96,1.34,5.3,3.24,7.02,5.7,1.71,2.45,2.66,5.29,2.85,8.5l.05.83h-8.06l-.09-.56c-.46-2.81-1.71-4.99-3.73-6.55-2.02-1.56-4.76-2.34-8.22-2.34-4.82,0-8.35,1.46-10.6,4.38-2.25,2.92-3.38,7.49-3.38,13.73v2.64c0,6.36,1.13,11.02,3.38,13.99,2.25,2.96,5.79,4.45,10.6,4.45,3.52,0,6.31-.76,8.36-2.27,2.05-1.51,3.25-3.66,3.59-6.44l.09-.74h8.06l-.05.83c-.19,3.21-1.14,6.04-2.87,8.5-1.73,2.46-4.08,4.35-7.04,5.7s-6.33,2.01-10.1,2.01c-7.35,0-12.91-2.18-16.69-6.53Z"/>
      <path class="cls-1" d="m497.69,14.43h7.78v24.17c0,1.82-.09,3.75-.28,5.79h.74c1.51-3.24,3.6-5.66,6.25-7.27,2.65-1.6,5.77-2.41,9.35-2.41s6.51.73,9.05,2.18c2.55,1.45,4.51,3.57,5.88,6.34,1.37,2.78,2.06,6.11,2.06,10v35.1h-8.24v-34.64c0-3.55-.98-6.34-2.94-8.38-1.96-2.04-4.7-3.06-8.22-3.06-2.72,0-5.06.62-7.04,1.88-1.98,1.25-3.5,3.06-4.56,5.44-1.06,2.38-1.6,5.23-1.6,8.57v30.19h-8.24V14.43Z"/>
    </g>
    <g>
      <path class="cls-2" d="m51.75,0C23.17,0,0,23.17,0,51.75s23.17,51.75,51.75,51.75,51.75-23.17,51.75-51.75S80.34,0,51.75,0Zm27.07,68.58c-2.99,16.27-17.24,28.61-34.38,28.61-19.31,0-34.96-15.65-34.96-34.96,0-10.75,4.85-20.36,12.48-26.77C23.98,17.51,39.19,3.56,57.68,3.56c19.85,0,35.95,16.1,35.95,35.95,0,11.95-5.84,22.53-14.81,29.07Z"/>
      <path class="cls-2" d="m44.44,27.26c-8.56,0-16.4,3.08-22.48,8.19-.15,1.33-.23,2.68-.23,4.05,0,19.85,16.1,35.95,35.95,35.95,7.9,0,15.21-2.56,21.14-6.88.38-2.06.59-4.18.59-6.35,0-19.31-15.65-34.96-34.96-34.96Z"/>
    </g>
  </g>
</svg>